<svg enable-background="new 0 0 590.081 471.319"
height="472"
viewBox="0 0 590.081 471.319"
width="591"
xmlns="http://www.w3.org/2000/svg">
<path
    d="m583.15 286.437c-1.215-6.64-4.753-11.936-10.23-15.314-2.939-1.812-5.977-3.031-9.077-3.646 9.535-18.877 12.445-32.459 9.412-42.937-1.921-6.637-6.24-11.813-12.49-14.968-3.629-1.832-7.49-2.761-11.476-2.761-3.348 0-6.712.651-10.112 1.963 2.235-10.437 1.911-18.775-.894-25.471-2.772-6.616-7.922-11.496-14.892-14.115-3.131-1.176-6.377-1.772-9.651-1.772-10.301 0-20.044 5.368-30.137 16.925-2.443-7.345-7.581-12.659-14.867-15.228-3.17-1.118-6.429-1.686-9.685-1.686-5.762 0-11.363 1.717-16.823 5.153-.041-.214-.063-.429-.111-.643-.205-.919-.489-1.805-.809-2.674 6.696-.461 12.688-4.069 16.233-9.855.692-1.127 17.15-27.918 35.005-54.812 3.064-4.616 4.148-10.148 3.052-15.578-1.097-5.431-4.243-10.109-8.858-13.174-3.413-2.265-7.377-3.464-11.465-3.464-6.972 0-13.435 3.466-17.289 9.271-6.849 10.316-13.509 20.637-19.193 29.565.89-6.956.78-13.946-.459-20.629-3.305-17.831-14.605-31.346-31.003-37.077-5.071-1.773-10.32-2.673-15.601-2.673-10.71 0-21.354 3.717-30.784 10.752-10.939 8.163-20.071 20.864-25.055 34.85-.808 2.266-1.486 4.518-2.064 6.754-1.409-.717-2.9-1.297-4.474-1.684l-21.402-5.271c3.365-13.612 8.878-33.313 16.885-54.315 1.974-5.178 1.814-10.813-.451-15.87s-6.363-8.928-11.537-10.901c-2.375-.906-4.862-1.366-7.392-1.366-8.547 0-16.336 5.368-19.381 13.356-9.346 24.515-15.518 47.067-19.128 62.08-3.108-2.149-6.824-3.493-10.87-3.667l-19.278-.821c.603-13.653 2.083-33.429 5.66-54.898 1.878-11.279-5.77-21.986-17.06-23.869-1.124-.186-2.269-.281-3.405-.281-10.178 0-18.781 7.289-20.456 17.333-1.859 11.158-3.2 21.83-4.168 31.577-3.702-8.741-11.476-22.544-25.761-30.398-6.756-3.715-14.123-5.599-21.895-5.599-4.718 0-9.532.711-14.307 2.113-28.102 8.241-39.11 34.664-36.84 59.979-4.316-7.753-6.68-12.501-6.735-12.612-3.515-7.147-10.65-11.587-18.62-11.587-3.148 0-6.311.737-9.149 2.132-4.972 2.446-8.693 6.681-10.479 11.926s-1.422 10.871 1.021 15.836c.198.403 4.102 8.323 11.129 20.58l-10.73 6.941c-3.642-6.233-7.046-12.374-10.171-18.344-3.592-6.861-10.636-11.125-18.385-11.125-3.329 0-6.653.82-9.612 2.368-10.133 5.31-14.061 17.869-8.756 28.001 20.658 39.466 44.124 70.317 45.109 71.607 3.957 5.184 9.969 8.157 16.494 8.157 4.578 0 8.927-1.47 12.575-4.253.143-.109.269-.233.409-.346-9.851 10.675-15.02 25-14.638 39.99.079 3.123.404 6.234.968 9.312-17.361 9.105-28.891 27.385-29.047 47.507-.149 19.249 9.819 36.752 25.686 46.536-1.448 4.425-2.215 9.064-2.259 13.779-.113 12.212 4.552 23.745 13.135 32.475 8.605 8.75 20.109 13.646 32.418 13.798 11.524 62.389 77.068 69.915 126.59 69.915 50.335 0 86.649-11.206 108.249-33.352 1.565.972 3.311 1.644 5.157 1.971 18.046 19.514 50.111 32.775 80.378 32.777h.006c11.593 0 21.808-1.969 30.359-5.852 18.882-8.575 39.976-28.859 68.397-65.769 41.682-54.13 58.672-87.015 55.084-106.622z"
    fill="#fff"></path>
<ellipse
    cx="365.551"
    cy="347.888"
    fill="#004"
    rx="40.481"
    ry="39.781"
    transform="matrix(.7183 -.6957 .6957 .7183 -139.0616 352.3188)"></ellipse>
<path
    d="m396.509 251.066c3.187-6.709 5.042-14.181 5.179-22.066.506-28.964-22.207-52.444-50.729-52.444-3.372 0-6.67.339-9.873.965-5.483-16.682-21.495-28.705-40.62-28.705-6.35 0-12.398 1.336-17.875 3.716-8.729-12.904-23.828-21.403-41.136-21.403-18.124 0-34.152 9.317-43.141 23.255-7.615-6.081-17.438-9.733-28.216-9.733-23.252 0-42.65 16.994-45.186 38.717-26.205-.597-46.754 19.934-46.082 46.321.141 5.553 1.223 10.923 3.069 15.964-17.867 5.169-30.993 21.604-31.145 41.215-.148 19.14 12.109 35.486 29.232 41.379-3.608 5.451-5.74 11.952-5.805 18.953-.18 19.405 15.533 35.255 35.096 35.401 19.563.147 35.568-15.465 35.748-34.871.126-13.631-7.595-25.499-18.978-31.411 6.828-7.584 11.024-17.605 11.109-28.635.021-2.693-.216-5.327-.665-7.888 22.698-2.899 39.554-22.017 38.945-45.955-.034-1.35-.138-2.687-.28-4.014 11.922-1.67 22.4-7.82 29.472-16.606 8.888 8.77 21.312 14.201 35.148 14.201 10.133 0 19.606-2.921 27.565-7.924 7.679 8.235 18.747 13.429 31.158 13.565 1.235 21.259 15.004 38.961 34.029 45.58-.521 2.528-.827 5.132-.873 7.799-.404 23.115 18.016 41.854 41.14 41.854s42.198-18.739 42.601-41.854c.26-14.892-7.299-27.957-18.887-35.376z"
    fill="#004"></path>
<path
    d="m239.631 200.215c-87.419 0-121.678 96.304-121.678 172.424 0 54.214 34.099 79.873 117.597 79.873 79.563 0 120.261-28.749 120.261-83.271-0-68.873-37.211-169.026-116.18-169.026z"
    fill="#39f"></path>
<path
    d="m314.753 181.728c-7.351-.069-14.113 2.483-19.405 6.787-1.758-17.365-16.307-31.004-34.111-31.172-15.202-.144-28.178 9.58-32.911 23.213-5.567-10.584-17.054-17.767-30.498-17.687-17.979.107-33.086 13.159-35.374 29.821-4.829-3.337-10.668-5.315-16.97-5.375-16.794-.159-30.514 13.365-30.645 30.205s13.378 30.621 30.172 30.78c15.247.144 27.959-10.99 30.269-25.645 5.761 4.224 13.018 6.714 20.96 6.666 15.258-.091 28.442-9.507 33.484-22.538 5.502 11.641 17.277 19.745 30.975 19.875 9.217.087 17.613-3.459 23.855-9.297 2.442 14.276 14.778 25.211 29.725 25.352 16.794.159 30.514-13.365 30.645-30.205.132-16.84-13.376-30.621-30.171-30.78z"
    fill="#004"></path>
<path
    d="m218.778 257.873c1.251-1.788.815-4.25-.972-5.5-.912-.638-22.631-15.477-48.616-2.814-1.961.956-2.776 3.32-1.82 5.28s3.32 2.778 5.281 1.821c21.711-10.582 39.874 1.665 40.627 2.185.689.482 1.479.714 2.261.714 1.245 0 2.471-.588 3.239-1.686z"
    fill="#004"></path>
<path
    d="m303.915 251.156c-.918-.576-22.771-13.928-47.657.964-1.872 1.12-2.481 3.546-1.361 5.417.74 1.237 2.049 1.923 3.393 1.923.69 0 1.389-.181 2.024-.561 20.634-12.348 38.659-1.511 39.404-1.051 1.85 1.159 4.286.6 5.445-1.248s.6-4.286-1.248-5.444z"
    fill="#004"></path>
<path
    d="m240.869 354.785c-7.116 2.74-12.859 2.892-14.627.384-1.994-2.826-1.14-12.529 14.703-30.97 1.421-1.655 1.232-4.148-.422-5.57-1.655-1.422-4.149-1.232-5.57.422-15.529 18.076-20.915 32.52-15.166 40.671 2.389 3.388 6.342 5.105 11.418 5.104 3.643 0 7.866-.884 12.503-2.67 2.036-.783 3.05-3.069 2.267-5.105-.785-2.035-3.069-3.055-5.106-2.266z"
    fill="#004"></path>
<path
    d="m235.429 430.208c34.807 0 62.366-23.124 66.12-62.252.34-3.546-3.621-5.88-6.596-3.92-9.779 6.445-29.75 16.393-59.86 16.393-27.145 0-47.747-9.795-58.368-16.243-3.505-2.128-7.918.68-7.478 4.757 4.2 38.897 32.326 61.265 66.182 61.265z"
    fill="#004"></path>
<path
    d="m172.198 367.979c20.785 38.064 109.205 38.925 127.528-.432 1.238-2.659-1.829-5.278-4.31-3.701-9.898 6.294-30.035 16.078-59.567 16.078-28.694 0-49.154-9.605-59.487-15.903-2.606-1.59-5.624 1.283-4.164 3.958z"
    fill="#fff"></path>
<path
    d="m235.956 430.226c14.983-.115 28.602-4.518 39.52-12.657-19.125-6.408-63.477-6.933-81.701-1.194 10.208 8.079 22.844 12.776 36.624 13.684 1.8.093 3.652.149 5.557.167z"
    fill="#fff"></path>
<!-- <ellipse
    cx="170.281"
    cy="339.713"
    fill="#ffabb9"
    rx="15.967"
    ry="10"></ellipse>
<ellipse
    cx="298.203"
    cy="340.952"
    fill="#ffabb9"
    rx="15.967"
    ry="10"></ellipse> -->
<!-- <path
    d="m155.95 317.631c2.101 2.59 5.65 3.496 8.793 2.382 7.356-2.609 15.388-4.052 23.807-4.052 3.359 0 6.655.231 9.874.671 4.031.539 7.937 1.41 11.683 2.581 3.282 1.025 6.834-.182 8.86-2.959 3.798-5.206 6.003-11.397 6.003-18.043 0-18.482-17.03-33.464-38.038-33.464s-38.038 14.982-38.038 33.464c-.001 7.241 2.613 13.944 7.056 19.42z"
    fill="#fff"></path>
<path
    d="m210.061 271.659s-8.933-6.912-23.13-6.912c-14.238 0-22.363 6.657-22.363 6.657-7.274 23.225 6.423 46.79 6.423 46.79s8.124-2.223 15.877-2.223c9.315 0 16.589 1.563 16.589 1.563s15.154-20.608 6.604-45.875zm-8.788 37.413c-.756 1.221-2.064 1.892-3.402 1.892-.719 0-1.447-.194-2.103-.601-1.877-1.163-2.455-3.629-1.292-5.505.039-.063 4.626-7.724 4.251-18.34-.078-2.207 1.648-4.059 3.855-4.137 2.213-.087 4.059 1.649 4.137 3.855.464 13.144-5.205 22.446-5.446 22.836z"
    fill="#004"></path>
<path
    d="m251.827 317.631c2.101 2.59 5.65 3.496 8.793 2.382 7.356-2.609 15.388-4.052 23.807-4.052 3.359 0 6.655.231 9.874.671 4.031.539 7.937 1.41 11.683 2.581 3.282 1.025 6.834-.182 8.86-2.959 3.798-5.206 6.003-11.397 6.003-18.043 0-18.482-17.03-33.464-38.038-33.464s-38.038 14.982-38.038 33.464c-.001 7.241 2.613 13.944 7.056 19.42z"
    fill="#fff"></path>
<path
    d="m305.938 271.659s-8.933-6.912-23.13-6.912c-14.238 0-22.363 6.657-22.363 6.657-7.274 23.225 6.423 46.79 6.423 46.79s8.124-2.223 15.877-2.223c9.316 0 16.589 1.563 16.589 1.563s15.154-20.608 6.604-45.875zm-9.022 38.54c-.756 1.221-2.064 1.892-3.402 1.892-.719 0-1.447-.194-2.103-.601-1.877-1.163-2.455-3.629-1.292-5.505.039-.063 4.626-7.724 4.252-18.34-.078-2.207 1.648-4.059 3.855-4.137 2.227-.096 4.059 1.649 4.137 3.855.463 13.144-5.206 22.447-5.447 22.836z"
    fill="#004"></path>
<path
    d="m567.294 280.294c-13.393-8.26-25.125 4.797-39.432 25.201-11.726 16.724-27.533 40.922-27.533 40.922s14.459-21.841 27.533-40.922c23.323-34.038 48.96-75.763 28.079-86.305-16.789-8.475-36.298 18.016-53.241 46.519-14.053 23.642-27.272 49.61-27.272 49.61s15.085-27.513 27.272-49.61c20.448-37.077 39.724-77.873 16.933-86.434-21.44-8.054-42.801 30.17-60.601 68.105-13.878 29.575-27.023 60.272-27.023 60.272s15.014-31.861 27.023-60.272c13.649-32.292 23.582-61.957 6.152-68.105-41.813-14.749-73.433 127.602-73.433 127.602s9.596-68.789-35.521-72.051c-13.908-1.006-25.602 7.531-26.549 20.917-1.302 18.404 19.883 24.893 14.778 64.268-3.734 28.803-2.033 50.659-.747 75.416 2.323 44.707 76.176 69.648 111.532 53.593 17.347-7.878 37.504-27.712 64.316-62.532 26.119-33.921 68.616-93.316 47.734-106.194z"
    fill="#39f"></path>
<path
    d="m357.011 230.856c-16.447-1.023-29.673 9.524-30.739 24.58-.589 8.329 2.586 14.306 5.948 20.633 4.98 9.376 10.626 20.001 7.533 43.373-4.764 36.004-8.037 73.386 8.451 100.045.747 1.208 2.039 1.874 3.363 1.874.709 0 1.427-.191 2.074-.591 1.855-1.147 2.429-3.582 1.281-5.437-15.12-24.448-11.916-60.265-7.339-94.855 3.425-25.879-3.125-38.208-8.388-48.114-3.058-5.756-5.473-10.302-5.044-16.37.762-10.771 10.169-18.03 22.359-17.254 9.478.601 17.01 5.033 22.387 13.172 15.432 23.359 11.125 71.703-.762 105.33-.727 2.057.351 4.313 2.408 5.04 2.058.725 4.314-.351 5.04-2.408 12.522-35.424 16.745-86.827-.095-112.316-6.814-10.315-16.395-15.935-28.477-16.702z"
    fill="#004"></path>
<path
    d="m546.374 278.249c-1.944-.982-4.32-.2-5.304 1.745-.091.18-9.367 18.245-40.283 57.129-7.035-6.551-15.517-12.542-24.863-17.662 26.341-43.051 46.236-81.372 46.437-81.76 1.003-1.937.246-4.321-1.69-5.324-1.939-1.004-4.321-.247-5.324 1.69-.201.387-20.13 38.771-46.47 81.774-9.503-4.565-19.674-8.229-29.959-10.706 23.114-48.714 35.782-85.685 35.911-86.063.703-2.064-.401-4.308-2.466-5.011-2.063-.701-4.309.4-5.012 2.465-.129.379-12.962 37.818-36.383 86.936-6.443-1.155-12.872-1.817-19.15-1.916-2.157-.065-3.977 1.706-4.011 3.887s1.706 3.977 3.887 4.01c36.908.578 80.942 22.766 96.153 48.453.738 1.246 2.052 1.938 3.402 1.938.684 0 1.377-.178 2.009-.553 1.877-1.111 2.497-3.534 1.386-5.411-2.248-3.797-5.044-7.503-8.27-11.083 32.027-40.195 41.366-58.477 41.749-59.24.981-1.946.197-4.316-1.749-5.298z"
    fill="#004"></path> -->
<!-- <g fill="#f06">
    <path d="m82.193 72.837c-2.429-4.938-8.405-6.972-13.344-4.543-4.94 2.431-6.974 8.405-4.543 13.345.382.776 5.997 12.119 15.965 28.777l-28.298 18.308c-.152.099-.291.209-.436.315-5.301-8.643-10.886-18.287-16.218-28.474-2.553-4.877-8.577-6.761-13.454-4.208s-6.761 8.577-4.208 13.454c20.187 38.564 43.161 68.8 44.129 70.067 1.961 2.57 4.928 3.92 7.93 3.92 2.108 0 4.234-.667 6.04-2.044 4.376-3.339 5.217-9.594 1.878-13.971-.12-.157-6.534-8.605-15.414-22 .194-.108.394-.197.584-.32l28.006-18.119c4.592 7.096 9.726 14.682 15.361 22.504 1.948 2.704 5 4.143 8.096 4.143 2.018 0 4.055-.611 5.818-1.881 4.467-3.218 5.479-9.448 2.261-13.914-24.816-34.444-39.94-64.925-40.153-65.359z"></path>
    <path d="m255.648 96.322-29.931-1.275c.257-13.106 1.409-38.557 6.144-66.978.904-5.431-2.764-10.566-8.194-11.471-5.425-.899-10.566 2.765-11.471 8.194-7.167 43.021-6.491 78.529-6.459 80.021.114 5.256 4.289 9.519 9.541 9.743l39.522 1.684c.145.006.288.009.432.009 5.31 0 9.724-4.188 9.951-9.544.234-5.499-4.035-10.148-9.535-10.383z"></path>
    <path d="m326.808 111.971-31.751-7.821c2.888-13.021 9.198-38.406 19.744-66.066 1.961-5.145-.619-10.904-5.763-12.865-5.145-1.963-10.904.618-12.865 5.763-15.866 41.616-22.363 77.293-22.631 78.791-.929 5.175 2.322 10.181 7.427 11.439l41.071 10.116c.801.197 1.602.291 2.392.291 4.48 0 8.552-3.041 9.671-7.586 1.316-5.344-1.95-10.745-7.295-12.062z"></path>
    <path d="m187.009 86.863c-5.34-1.341-10.751 1.906-12.085 7.247-.285 1.089-3.158 10.72-16.123 13.461-13.139 2.771-21.448-6.378-25.743-15.421l49.895-15.02c5.226-1.573 8.215-7.055 6.706-12.3-.644-2.24-6.77-22.146-23.211-31.187-8.377-4.605-18.052-5.502-27.98-2.588-25.8 7.566-33.372 35.055-27.517 58.298 4.971 19.733 20.18 38.706 42.852 38.706 2.917 0 5.961-.315 9.12-.982 24.95-5.273 30.759-25.797 31.339-28.119 1.334-5.343-1.912-10.761-7.253-12.095zm-42.93-36.679c2.026-.594 3.926-.896 5.726-.896 5.109 0 9.414 2.427 13.497 7.478 1.191 1.474 2.226 3.022 3.11 4.524l-37.402 11.259c.409-10.031 4.794-19.351 15.069-22.365z"></path>
    <path d="m427.771 92.552c-2.619-14.131-11.13-24.384-23.965-28.871-12.125-4.24-25.046-1.915-36.385 6.545-9.279 6.922-17.06 17.794-21.35 29.831-9.452 26.522-.51 49.895 22.251 58.16 4.292 1.558 8.623 2.329 12.908 2.329 8.96 0 17.718-3.371 25.495-9.96 15.927-13.492 24.778-37.9 21.046-58.034zm-33.933 42.824c-5.974 5.061-12.269 6.444-18.712 4.103-18.49-6.715-11.805-28.443-10.277-32.73 4.782-13.419 15.585-25.179 26.948-25.179 1.802 0 3.62.297 5.429.929 6.048 2.115 9.628 6.591 10.943 13.685 2.39 12.892-4.039 30.473-14.331 39.192z"></path>
    <path d="m480.81 84.821c-4.587-3.046-10.772-1.796-13.818 2.791-18.49 27.85-35.438 55.48-35.607 55.756-2.876 4.694-1.403 10.83 3.291 13.707 1.626.996 3.423 1.47 5.199 1.47 3.353 0 6.628-1.692 8.508-4.761.167-.273 16.934-27.606 35.217-55.145 3.046-4.587 1.797-10.773-2.79-13.818z"></path>
    <path d="m427.249 168.04c-4.647-2.953-10.807-1.58-13.759 3.066l-4.803 7.558c-2.953 4.646-1.58 10.806 3.066 13.758 1.658 1.054 3.508 1.557 5.337 1.557 3.297 0 6.523-1.634 8.422-4.623l4.803-7.558c2.954-4.646 1.581-10.806-3.066-13.758z"></path>
</g> -->
</svg>
