<svg enable-background="new 0 0 590.081 471.319"
height="472"
viewBox="0 0 590.081 471.319"
width="591"
xmlns="http://www.w3.org/2000/svg">
<path
    d="m583.15 286.437c-1.215-6.64-4.753-11.936-10.23-15.314-2.939-1.812-5.977-3.031-9.077-3.646 9.535-18.877 12.445-32.459 9.412-42.937-1.921-6.637-6.24-11.813-12.49-14.968-3.629-1.832-7.49-2.761-11.476-2.761-3.348 0-6.712.651-10.112 1.963 2.235-10.437 1.911-18.775-.894-25.471-2.772-6.616-7.922-11.496-14.892-14.115-3.131-1.176-6.377-1.772-9.651-1.772-10.301 0-20.044 5.368-30.137 16.925-2.443-7.345-7.581-12.659-14.867-15.228-3.17-1.118-6.429-1.686-9.685-1.686-5.762 0-11.363 1.717-16.823 5.153-.041-.214-.063-.429-.111-.643-.205-.919-.489-1.805-.809-2.674 6.696-.461 12.688-4.069 16.233-9.855.692-1.127 17.15-27.918 35.005-54.812 3.064-4.616 4.148-10.148 3.052-15.578-1.097-5.431-4.243-10.109-8.858-13.174-3.413-2.265-7.377-3.464-11.465-3.464-6.972 0-13.435 3.466-17.289 9.271-6.849 10.316-13.509 20.637-19.193 29.565.89-6.956.78-13.946-.459-20.629-3.305-17.831-14.605-31.346-31.003-37.077-5.071-1.773-10.32-2.673-15.601-2.673-10.71 0-21.354 3.717-30.784 10.752-10.939 8.163-20.071 20.864-25.055 34.85-.808 2.266-1.486 4.518-2.064 6.754-1.409-.717-2.9-1.297-4.474-1.684l-21.402-5.271c3.365-13.612 8.878-33.313 16.885-54.315 1.974-5.178 1.814-10.813-.451-15.87s-6.363-8.928-11.537-10.901c-2.375-.906-4.862-1.366-7.392-1.366-8.547 0-16.336 5.368-19.381 13.356-9.346 24.515-15.518 47.067-19.128 62.08-3.108-2.149-6.824-3.493-10.87-3.667l-19.278-.821c.603-13.653 2.083-33.429 5.66-54.898 1.878-11.279-5.77-21.986-17.06-23.869-1.124-.186-2.269-.281-3.405-.281-10.178 0-18.781 7.289-20.456 17.333-1.859 11.158-3.2 21.83-4.168 31.577-3.702-8.741-11.476-22.544-25.761-30.398-6.756-3.715-14.123-5.599-21.895-5.599-4.718 0-9.532.711-14.307 2.113-28.102 8.241-39.11 34.664-36.84 59.979-4.316-7.753-6.68-12.501-6.735-12.612-3.515-7.147-10.65-11.587-18.62-11.587-3.148 0-6.311.737-9.149 2.132-4.972 2.446-8.693 6.681-10.479 11.926s-1.422 10.871 1.021 15.836c.198.403 4.102 8.323 11.129 20.58l-10.73 6.941c-3.642-6.233-7.046-12.374-10.171-18.344-3.592-6.861-10.636-11.125-18.385-11.125-3.329 0-6.653.82-9.612 2.368-10.133 5.31-14.061 17.869-8.756 28.001 20.658 39.466 44.124 70.317 45.109 71.607 3.957 5.184 9.969 8.157 16.494 8.157 4.578 0 8.927-1.47 12.575-4.253.143-.109.269-.233.409-.346-9.851 10.675-15.02 25-14.638 39.99.079 3.123.404 6.234.968 9.312-17.361 9.105-28.891 27.385-29.047 47.507-.149 19.249 9.819 36.752 25.686 46.536-1.448 4.425-2.215 9.064-2.259 13.779-.113 12.212 4.552 23.745 13.135 32.475 8.605 8.75 20.109 13.646 32.418 13.798 11.524 62.389 77.068 69.915 126.59 69.915 50.335 0 86.649-11.206 108.249-33.352 1.565.972 3.311 1.644 5.157 1.971 18.046 19.514 50.111 32.775 80.378 32.777h.006c11.593 0 21.808-1.969 30.359-5.852 18.882-8.575 39.976-28.859 68.397-65.769 41.682-54.13 58.672-87.015 55.084-106.622z"
    fill="#fff"></path>
<ellipse
    cx="365.551"
    cy="347.888"
    fill="#004"
    rx="40.481"
    ry="39.781"
    transform="matrix(.7183 -.6957 .6957 .7183 -139.0616 352.3188)"></ellipse>
<path
        android:fillColor="#004"
        android:pathData="M436.46,376.06a39.78,40.48 45.92,1 0,58.16 -56.33a39.78,40.48 45.92,1 0,-58.16 56.33z" />
    <path
        android:fillColor="#004"
        android:pathData="m496.51,251.07c3.19,-6.71 5.04,-14.18 5.18,-22.07 0.51,-28.96 -22.21,-52.44 -50.73,-52.44 -3.37,0 -6.67,0.34 -9.87,0.96 -5.48,-16.68 -21.5,-28.7 -40.62,-28.7 -6.35,0 -12.4,1.34 -17.88,3.72 -8.73,-12.9 -23.83,-21.4 -41.14,-21.4 -18.12,0 -34.15,9.32 -43.14,23.25 -7.61,-6.08 -17.44,-9.73 -28.22,-9.73 -23.25,0 -42.65,16.99 -45.19,38.72 -26.2,-0.6 -46.75,19.93 -46.08,46.32 0.14,5.55 1.22,10.92 3.07,15.96 -17.87,5.17 -30.99,21.6 -31.15,41.22 -0.15,19.14 12.11,35.49 29.23,41.38 -3.61,5.45 -5.74,11.95 -5.8,18.95 -0.18,19.41 15.53,35.26 35.1,35.4 19.56,0.15 35.57,-15.47 35.75,-34.87 0.13,-13.63 -7.59,-25.5 -18.98,-31.41 6.83,-7.58 11.02,-17.6 11.11,-28.64 0.02,-2.69 -0.22,-5.33 -0.67,-7.89 22.7,-2.9 39.55,-22.02 38.94,-45.96 -0.03,-1.35 -0.14,-2.69 -0.28,-4.01 11.92,-1.67 22.4,-7.82 29.47,-16.61 8.89,8.77 21.31,14.2 35.15,14.2 10.13,0 19.61,-2.92 27.57,-7.92 7.68,8.23 18.75,13.43 31.16,13.56 1.24,21.26 15,38.96 34.03,45.58 -0.52,2.53 -0.83,5.13 -0.87,7.8 -0.4,23.11 18.02,41.85 41.14,41.85s42.2,-18.74 42.6,-41.85c0.26,-14.89 -7.3,-27.96 -18.89,-35.38z"
        tools:ignore="VectorPath" />
    <path
        android:fillColor="#157DCF"
        android:pathData="m339.63,200.21c-87.42,0 -121.68,96.3 -121.68,172.42 0,54.21 34.1,79.87 117.6,79.87 79.56,0 120.26,-28.75 120.26,-83.27 -0,-68.87 -37.21,-169.03 -116.18,-169.03z" />
    <path
        android:fillColor="#004"
        android:pathData="m414.75,181.73c-7.35,-0.07 -14.11,2.48 -19.41,6.79 -1.76,-17.36 -16.31,-31 -34.11,-31.17 -15.2,-0.14 -28.18,9.58 -32.91,23.21 -5.57,-10.58 -17.05,-17.77 -30.5,-17.69 -17.98,0.11 -33.09,13.16 -35.37,29.82 -4.83,-3.34 -10.67,-5.32 -16.97,-5.38 -16.79,-0.16 -30.51,13.36 -30.65,30.2s13.38,30.62 30.17,30.78c15.25,0.14 27.96,-10.99 30.27,-25.65 5.76,4.22 13.02,6.71 20.96,6.67 15.26,-0.09 28.44,-9.51 33.48,-22.54 5.5,11.64 17.28,19.75 30.98,19.88 9.22,0.09 17.61,-3.46 23.85,-9.3 2.44,14.28 14.78,25.21 29.73,25.35 16.79,0.16 30.51,-13.36 30.65,-30.2 0.13,-16.84 -13.38,-30.62 -30.17,-30.78z" />
    <path
        android:fillColor="#004"
        android:pathData="m318.78,257.87c1.25,-1.79 0.81,-4.25 -0.97,-5.5 -0.91,-0.64 -22.63,-15.48 -48.62,-2.81 -1.96,0.96 -2.78,3.32 -1.82,5.28s3.32,2.78 5.28,1.82c21.71,-10.58 39.87,1.66 40.63,2.18 0.69,0.48 1.48,0.71 2.26,0.71 1.25,0 2.47,-0.59 3.24,-1.69z" />
    <path
        android:fillColor="#004"
        android:pathData="m403.92,251.16c-0.92,-0.58 -22.77,-13.93 -47.66,0.96 -1.87,1.12 -2.48,3.55 -1.36,5.42 0.74,1.24 2.05,1.92 3.39,1.92 0.69,0 1.39,-0.18 2.02,-0.56 20.63,-12.35 38.66,-1.51 39.4,-1.05 1.85,1.16 4.29,0.6 5.45,-1.25s0.6,-4.29 -1.25,-5.44z" />
    <path
        android:fillColor="#004"
        android:pathData="m340.87,354.79c-7.12,2.74 -12.86,2.89 -14.63,0.38 -1.99,-2.83 -1.14,-12.53 14.7,-30.97 1.42,-1.65 1.23,-4.15 -0.42,-5.57 -1.65,-1.42 -4.15,-1.23 -5.57,0.42 -15.53,18.08 -20.92,32.52 -15.17,40.67 2.39,3.39 6.34,5.11 11.42,5.1 3.64,0 7.87,-0.88 12.5,-2.67 2.04,-0.78 3.05,-3.07 2.27,-5.11 -0.79,-2.04 -3.07,-3.06 -5.11,-2.27z" />
    <path
        android:fillColor="#004"
        android:pathData="m335.43,430.21c34.81,0 62.37,-23.12 66.12,-62.25 0.34,-3.55 -3.62,-5.88 -6.6,-3.92 -9.78,6.45 -29.75,16.39 -59.86,16.39 -27.15,0 -47.75,-9.8 -58.37,-16.24 -3.51,-2.13 -7.92,0.68 -7.48,4.76 4.2,38.9 32.33,61.26 66.18,61.26z" />
    <path
        android:fillColor="#fff"
        android:pathData="m272.2,367.98c20.78,38.06 109.21,38.92 127.53,-0.43 1.24,-2.66 -1.83,-5.28 -4.31,-3.7 -9.9,6.29 -30.03,16.08 -59.57,16.08 -28.69,0 -49.15,-9.6 -59.49,-15.9 -2.61,-1.59 -5.62,1.28 -4.16,3.96z" />
    <path
        android:fillColor="#fff"
        android:pathData="m335.96,430.23c14.98,-0.12 28.6,-4.52 39.52,-12.66 -19.13,-6.41 -63.48,-6.93 -81.7,-1.19 10.21,8.08 22.84,12.78 36.62,13.68 1.8,0.09 3.65,0.15 5.56,0.17z" />
    <path
        android:fillColor="#ffabb9"
        android:pathData="M254.31,339.71a15.97,10 0,1 0,31.93 0a15.97,10 0,1 0,-31.93 0z" />
    <path
        android:fillColor="#ffabb9"
        android:pathData="M382.24,340.95a15.97,10 0,1 0,31.93 0a15.97,10 0,1 0,-31.93 0z" />
    <path
        android:fillColor="#fff"
        android:pathData="m255.95,317.63c2.1,2.59 5.65,3.5 8.79,2.38 7.36,-2.61 15.39,-4.05 23.81,-4.05 3.36,0 6.66,0.23 9.87,0.67 4.03,0.54 7.94,1.41 11.68,2.58 3.28,1.02 6.83,-0.18 8.86,-2.96 3.8,-5.21 6,-11.4 6,-18.04 0,-18.48 -17.03,-33.46 -38.04,-33.46s-38.04,14.98 -38.04,33.46c-0,7.24 2.61,13.94 7.06,19.42z" />
    <path
        android:fillColor="#004"
        android:pathData="m310.06,271.66s-8.93,-6.91 -23.13,-6.91c-14.24,0 -22.36,6.66 -22.36,6.66 -7.27,23.23 6.42,46.79 6.42,46.79s8.12,-2.22 15.88,-2.22c9.31,0 16.59,1.56 16.59,1.56s15.15,-20.61 6.6,-45.88zM201.27,309.07c-0.76,1.22 -2.06,1.89 -3.4,1.89 -0.72,0 -1.45,-0.19 -2.1,-0.6 -1.88,-1.16 -2.45,-3.63 -1.29,-5.51 0.04,-0.06 4.63,-7.72 4.25,-18.34 -0.08,-2.21 1.65,-4.06 3.86,-4.14 2.21,-0.09 4.06,1.65 4.14,3.86 0.46,13.14 -5.2,22.45 -5.45,22.84z" />
    <path
        android:fillColor="#fff"
        android:pathData="m351.83,317.63c2.1,2.59 5.65,3.5 8.79,2.38 7.36,-2.61 15.39,-4.05 23.81,-4.05 3.36,0 6.66,0.23 9.87,0.67 4.03,0.54 7.94,1.41 11.68,2.58 3.28,1.02 6.83,-0.18 8.86,-2.96 3.8,-5.21 6,-11.4 6,-18.04 0,-18.48 -17.03,-33.46 -38.04,-33.46s-38.04,14.98 -38.04,33.46c-0,7.24 2.61,13.94 7.06,19.42z" />
    <path
        android:fillColor="#004"
        android:pathData="m405.94,271.66s-8.93,-6.91 -23.13,-6.91c-14.24,0 -22.36,6.66 -22.36,6.66 -7.27,23.23 6.42,46.79 6.42,46.79s8.12,-2.22 15.88,-2.22c9.32,0 16.59,1.56 16.59,1.56s15.15,-20.61 6.6,-45.88zM296.92,310.2c-0.76,1.22 -2.06,1.89 -3.4,1.89 -0.72,0 -1.45,-0.19 -2.1,-0.6 -1.88,-1.16 -2.45,-3.63 -1.29,-5.51 0.04,-0.06 4.63,-7.72 4.25,-18.34 -0.08,-2.21 1.65,-4.06 3.86,-4.14 2.23,-0.1 4.06,1.65 4.14,3.86 0.46,13.14 -5.21,22.45 -5.45,22.84z" />


<!-- <g fill="#f06">
    <path d="m82.193 72.837c-2.429-4.938-8.405-6.972-13.344-4.543-4.94 2.431-6.974 8.405-4.543 13.345.382.776 5.997 12.119 15.965 28.777l-28.298 18.308c-.152.099-.291.209-.436.315-5.301-8.643-10.886-18.287-16.218-28.474-2.553-4.877-8.577-6.761-13.454-4.208s-6.761 8.577-4.208 13.454c20.187 38.564 43.161 68.8 44.129 70.067 1.961 2.57 4.928 3.92 7.93 3.92 2.108 0 4.234-.667 6.04-2.044 4.376-3.339 5.217-9.594 1.878-13.971-.12-.157-6.534-8.605-15.414-22 .194-.108.394-.197.584-.32l28.006-18.119c4.592 7.096 9.726 14.682 15.361 22.504 1.948 2.704 5 4.143 8.096 4.143 2.018 0 4.055-.611 5.818-1.881 4.467-3.218 5.479-9.448 2.261-13.914-24.816-34.444-39.94-64.925-40.153-65.359z"></path>
    <path d="m255.648 96.322-29.931-1.275c.257-13.106 1.409-38.557 6.144-66.978.904-5.431-2.764-10.566-8.194-11.471-5.425-.899-10.566 2.765-11.471 8.194-7.167 43.021-6.491 78.529-6.459 80.021.114 5.256 4.289 9.519 9.541 9.743l39.522 1.684c.145.006.288.009.432.009 5.31 0 9.724-4.188 9.951-9.544.234-5.499-4.035-10.148-9.535-10.383z"></path>
    <path d="m326.808 111.971-31.751-7.821c2.888-13.021 9.198-38.406 19.744-66.066 1.961-5.145-.619-10.904-5.763-12.865-5.145-1.963-10.904.618-12.865 5.763-15.866 41.616-22.363 77.293-22.631 78.791-.929 5.175 2.322 10.181 7.427 11.439l41.071 10.116c.801.197 1.602.291 2.392.291 4.48 0 8.552-3.041 9.671-7.586 1.316-5.344-1.95-10.745-7.295-12.062z"></path>
    <path d="m187.009 86.863c-5.34-1.341-10.751 1.906-12.085 7.247-.285 1.089-3.158 10.72-16.123 13.461-13.139 2.771-21.448-6.378-25.743-15.421l49.895-15.02c5.226-1.573 8.215-7.055 6.706-12.3-.644-2.24-6.77-22.146-23.211-31.187-8.377-4.605-18.052-5.502-27.98-2.588-25.8 7.566-33.372 35.055-27.517 58.298 4.971 19.733 20.18 38.706 42.852 38.706 2.917 0 5.961-.315 9.12-.982 24.95-5.273 30.759-25.797 31.339-28.119 1.334-5.343-1.912-10.761-7.253-12.095zm-42.93-36.679c2.026-.594 3.926-.896 5.726-.896 5.109 0 9.414 2.427 13.497 7.478 1.191 1.474 2.226 3.022 3.11 4.524l-37.402 11.259c.409-10.031 4.794-19.351 15.069-22.365z"></path>
    <path d="m427.771 92.552c-2.619-14.131-11.13-24.384-23.965-28.871-12.125-4.24-25.046-1.915-36.385 6.545-9.279 6.922-17.06 17.794-21.35 29.831-9.452 26.522-.51 49.895 22.251 58.16 4.292 1.558 8.623 2.329 12.908 2.329 8.96 0 17.718-3.371 25.495-9.96 15.927-13.492 24.778-37.9 21.046-58.034zm-33.933 42.824c-5.974 5.061-12.269 6.444-18.712 4.103-18.49-6.715-11.805-28.443-10.277-32.73 4.782-13.419 15.585-25.179 26.948-25.179 1.802 0 3.62.297 5.429.929 6.048 2.115 9.628 6.591 10.943 13.685 2.39 12.892-4.039 30.473-14.331 39.192z"></path>
    <path d="m480.81 84.821c-4.587-3.046-10.772-1.796-13.818 2.791-18.49 27.85-35.438 55.48-35.607 55.756-2.876 4.694-1.403 10.83 3.291 13.707 1.626.996 3.423 1.47 5.199 1.47 3.353 0 6.628-1.692 8.508-4.761.167-.273 16.934-27.606 35.217-55.145 3.046-4.587 1.797-10.773-2.79-13.818z"></path>
    <path d="m427.249 168.04c-4.647-2.953-10.807-1.58-13.759 3.066l-4.803 7.558c-2.953 4.646-1.58 10.806 3.066 13.758 1.658 1.054 3.508 1.557 5.337 1.557 3.297 0 6.523-1.634 8.422-4.623l4.803-7.558c2.954-4.646 1.581-10.806-3.066-13.758z"></path>
</g> -->
</svg>
